<svg width="115" height="32" viewBox="0 0 115 32" fill="none" xmlns="http://www.w3.org/2000/svg">
<mask id="mask0_37_2376" style="mask-type:luminance" maskUnits="userSpaceOnUse" x="7" y="3" width="101" height="26">
<path d="M107.487 3.19531H7.3623V28.7953H107.487V3.19531Z" fill="white"/>
</mask>
<g mask="url(#mask0_37_2376)">
<path d="M37.7246 26.6899V5.30447H44.7173C47.0362 5.30447 48.7824 5.78522 49.9518 6.74673C51.1213 7.70422 51.706 9.12645 51.706 11.0134C51.706 12.0109 51.4256 12.9004 50.8529 13.6656C50.2883 14.4388 49.5153 15.0356 48.534 15.4564C49.6915 15.7768 50.6047 16.3938 51.2775 17.2952C51.9504 18.2046 52.2788 19.2823 52.2788 20.5283C52.2788 22.4472 51.658 23.9536 50.4124 25.0473C49.1708 26.145 47.4167 26.6899 45.1459 26.6899H37.7246ZM40.5481 16.7344V24.3743H45.198C46.5116 24.3743 47.5489 24.0377 48.3058 23.3607C49.0628 22.6836 49.4432 21.7502 49.4432 20.5683C49.4432 18.0124 48.0455 16.7344 45.242 16.7344H40.5481ZM40.5481 14.4187H44.8014C46.035 14.4187 47.0202 14.1062 47.7652 13.4892C48.5021 12.8723 48.8745 12.039 48.8745 10.9813C48.8745 9.80349 48.53 8.95021 47.8452 8.41733C47.1604 7.8805 46.1151 7.61609 44.7173 7.61609H40.5481V14.4187ZM68.2466 21.0972H59.2834L57.2729 26.6939H54.3653L62.5315 5.30447H64.9985L73.1767 26.6939H70.2851L68.2466 21.0972ZM60.1405 18.7816H67.4136L63.769 8.78589L60.1405 18.7816ZM82.3564 17.159C79.9411 16.4619 78.1829 15.6046 77.0776 14.591C75.9762 13.5774 75.4235 12.3234 75.4235 10.8371C75.4235 9.15453 76.1004 7.76031 77.4421 6.65458C78.7917 5.55286 80.5379 5 82.6884 5C84.158 5 85.4717 5.28445 86.6173 5.85334C87.7709 6.41822 88.6557 7.20344 89.2885 8.20501C89.9213 9.20253 90.2381 10.2963 90.2381 11.4781H87.4061C87.4061 10.1841 86.9941 9.16653 86.1733 8.42533C85.3517 7.6882 84.186 7.31562 82.6884 7.31562C81.2988 7.31562 80.2175 7.6201 79.4405 8.23309C78.6595 8.85005 78.271 9.69533 78.271 10.785C78.271 11.6584 78.6355 12.3996 79.3804 13.0005C80.1173 13.6014 81.3749 14.1543 83.1533 14.6551C84.9277 15.1559 86.3212 15.7088 87.322 16.3096C88.3236 16.9106 89.0684 17.6117 89.5532 18.421C90.038 19.2222 90.2781 20.1717 90.2781 21.2574C90.2781 22.9921 89.6013 24.3823 88.2517 25.4239C86.8981 26.4656 85.0957 26.9864 82.8325 26.9864C81.3628 26.9864 79.9892 26.7059 78.7196 26.145C77.4501 25.5801 76.4688 24.8069 75.776 23.8294C75.0831 22.8519 74.7427 21.7381 74.7427 20.4962H77.5742C77.5742 21.7862 78.0508 22.8038 79.008 23.549C79.9612 24.2941 81.2349 24.6708 82.8325 24.6708C84.3229 24.6708 85.4597 24.3663 86.2533 23.7573C87.0501 23.1524 87.4468 22.3231 87.4468 21.2814C87.4468 20.2318 87.074 19.4225 86.3452 18.8496C85.6204 18.2848 84.2868 17.7159 82.3564 17.159ZM105.989 16.8224H96.7261V24.3743H107.488V26.6899H93.9068V5.30447H107.343V7.6201H96.7261V14.5068H105.989V16.8224Z" fill="white" fill-opacity="0.7"/>
<path d="M20.1101 28.7953C27.1749 28.7953 32.906 23.0664 32.906 15.9953C32.906 8.92827 27.1789 3.19531 20.1101 3.19531C13.4098 3.19531 7.90698 8.35539 7.3623 14.9176H24.2713V17.069H7.3623C7.90698 23.6352 13.4098 28.7953 20.1101 28.7953Z" fill="white" fill-opacity="0.7"/>
</g>
</svg>
