<svg width="125" height="32" viewBox="0 0 125 32" fill="none" xmlns="http://www.w3.org/2000/svg">
<g clip-path="url(#clip0_37_2370)">
<mask id="mask0_37_2370" style="mask-type:luminance" maskUnits="userSpaceOnUse" x="0" y="-1" width="125" height="33">
<path d="M124.352 -0.00390625H0.842773V31.9961H124.352V-0.00390625Z" fill="white"/>
</mask>
<g mask="url(#mask0_37_2370)">
<path fill-rule="evenodd" clip-rule="evenodd" d="M54.1077 12.7584H59.5369C60.0164 12.7584 60.4023 12.3375 60.3434 11.8469C60.294 11.4353 59.93 11.1334 59.5154 11.1334H52.7661C52.3192 11.1334 51.9536 11.499 51.9536 11.946V20.071C51.9536 20.5179 52.3192 20.8835 52.7661 20.8835H59.5369C60.0164 20.8835 60.4023 20.4624 60.3434 19.9718C60.294 19.5603 59.93 19.2585 59.5154 19.2585H54.1077C53.8154 19.2585 53.5785 19.0215 53.5785 18.7292V17.3501C53.5785 17.0578 53.8154 16.8209 54.1077 16.8209H58.1827C58.6621 16.8209 59.0481 16.4 58.9892 15.9094C58.9397 15.4978 58.5757 15.1959 58.1613 15.1959H54.1077C53.8154 15.1959 53.5785 14.959 53.5785 14.6667V13.2876C53.5785 12.9954 53.8154 12.7584 54.1077 12.7584ZM44.7656 12.7584C45.6729 12.7584 46.4313 13.0835 47.0541 13.7198C47.2032 13.8689 47.4063 13.9502 47.6365 13.9502C48.0833 13.9502 48.449 13.5845 48.449 13.1376C48.449 12.9074 48.3407 12.6907 48.1104 12.4876C47.1489 11.5803 46.025 11.1334 44.7656 11.1334C43.4249 11.1334 42.2739 11.6075 41.3125 12.569C40.3646 13.5168 39.8907 14.6678 39.8907 16.0085C39.8907 17.3491 40.3646 18.5002 41.3125 19.4616C42.2739 20.4094 43.4249 20.8835 44.7656 20.8835C46.1063 20.8835 47.2573 20.4094 48.2053 19.4616C48.5302 19.1366 48.5302 18.622 48.2053 18.3106C47.8937 17.9856 47.3793 17.9856 47.0541 18.3106C46.4178 18.947 45.6594 19.2585 44.7656 19.2585C43.8718 19.2585 43.1001 18.947 42.4635 18.3106C41.827 17.6742 41.5157 16.9022 41.5157 16.0085C41.5157 15.1147 41.827 14.3564 42.4635 13.7198C43.1001 13.0835 43.8718 12.7584 44.7656 12.7584ZM71.2425 19.2585H65.8359C65.5431 19.2585 65.3057 19.0211 65.3057 18.7283V11.9673C65.3057 11.5526 65.0037 11.1886 64.5921 11.1394C64.1015 11.0806 63.6807 11.4666 63.6807 11.946V20.071C63.6807 20.5179 64.0463 20.8835 64.4933 20.8835H71.264C71.7436 20.8835 72.1296 20.4624 72.0706 19.9718C72.0211 19.5603 71.6571 19.2585 71.2425 19.2585ZM105.432 11.1334H97.3278C96.8486 11.1334 96.463 11.5545 96.5214 12.045C96.571 12.4566 96.935 12.7584 97.3494 12.7584H100.049C100.341 12.7584 100.578 12.9954 100.578 13.2878V20.071C100.578 20.5506 100.999 20.9365 101.49 20.8776C101.901 20.828 102.203 20.464 102.203 20.0494V13.2878C102.203 12.9954 102.44 12.7584 102.733 12.7584H105.453C105.933 12.7584 106.319 12.3375 106.26 11.8469C106.21 11.4353 105.846 11.1334 105.432 11.1334ZM109.725 11.1334C109.278 11.1334 108.913 11.499 108.913 11.946V20.071C108.913 20.5179 109.278 20.8835 109.725 20.8835C110.173 20.8835 110.538 20.5179 110.538 20.071V11.946C110.538 11.499 110.173 11.1334 109.725 11.1334ZM93.4678 15.9137C92.723 15.4397 91.7214 15.1959 90.4614 15.1959C88.7958 15.1959 87.9566 14.7897 87.9566 13.9771C87.9566 13.1646 88.7958 12.7584 90.4614 12.7584C91.3822 12.7584 92.263 12.9345 93.1022 13.273C93.5894 13.422 93.9286 13.2459 94.1182 12.772C94.2806 12.3522 94.0638 11.946 93.6166 11.7429C92.6822 11.3366 91.6398 11.1334 90.4614 11.1334C89.2294 11.1334 88.2406 11.3908 87.4694 11.8918C86.711 12.3929 86.3318 13.097 86.3318 13.9771C86.3318 14.9116 86.711 15.6293 87.4558 16.1032C88.2006 16.5771 89.2022 16.8209 90.4614 16.8209C92.127 16.8209 92.967 17.2271 92.967 18.0397C92.967 18.8522 92.127 19.2585 90.4614 19.2585H90.0558C89.2158 19.2585 88.3358 19.0825 87.4286 18.7438C87.0086 18.595 86.575 18.7845 86.399 19.2314C86.2366 19.6513 86.4806 20.1386 86.8998 20.2877C87.835 20.6802 88.8774 20.8835 90.0558 20.8835H90.4614C91.6942 20.8835 92.6822 20.6262 93.4406 20.125C94.2126 19.6241 94.5918 18.9198 94.5918 18.0397C94.5918 17.1053 94.2126 16.3876 93.4678 15.9137ZM76.8697 12.7584H82.2998C82.7798 12.7584 83.1654 12.3375 83.107 11.8469C83.0574 11.4353 82.6934 11.1334 82.279 11.1334H75.5293C75.0823 11.1334 74.7167 11.499 74.7167 11.946V20.071C74.7167 20.5179 75.0823 20.8835 75.5293 20.8835H82.2998C82.7798 20.8835 83.1654 20.4624 83.107 19.9718C83.0574 19.5603 82.6934 19.2585 82.279 19.2585H76.8697C76.5781 19.2585 76.3417 19.0221 76.3417 18.7306V17.349C76.3417 17.0573 76.5781 16.8209 76.8697 16.8209H80.9462C81.4254 16.8209 81.811 16.4 81.7526 15.9094C81.703 15.4978 81.339 15.1959 80.9246 15.1959H76.8697C76.5781 15.1959 76.3417 14.9596 76.3417 14.668V13.2863C76.3417 12.9947 76.5781 12.7584 76.8697 12.7584ZM31.0306 16.1745C31.0277 16.2721 30.8948 16.2978 30.8564 16.2079C30.84 16.1691 30.8231 16.1302 30.806 16.0912C30.7747 16.0199 30.7834 15.9371 30.8302 15.8748C30.8398 15.862 30.8595 15.8362 30.883 15.8055C30.9462 15.723 31.0373 15.7353 31.0373 15.8269C31.0373 15.9471 31.0345 16.0513 31.0306 16.1745ZM30.3315 14.2652C30.2238 14.4591 29.9478 14.468 29.8282 14.281C29.8097 14.2522 29.791 14.2233 29.7721 14.1942C29.3413 13.5326 28.8454 12.8832 28.2916 12.2521C28.1557 12.0971 28.2668 11.8539 28.473 11.8538H28.478C29.7721 11.8538 30.4506 12.1734 30.6577 12.5638C30.8305 12.8903 30.7775 13.4613 30.3315 14.2652ZM30.0422 21.033C29.9729 21.2096 29.9002 21.385 29.8238 21.5589C29.812 21.5828 29.8008 21.607 29.7885 21.6308C29.3121 22.5476 28.5129 23.2696 27.4448 23.772C27.2051 23.8846 26.9429 23.6653 27.0143 23.4103C27.3689 22.141 27.6373 20.7644 27.8113 19.3213C27.8437 19.0522 27.9765 18.8051 28.1816 18.6278C28.6208 18.2478 29.0309 17.8683 29.4083 17.4916L29.4124 17.4873C29.5981 17.3021 29.9148 17.3818 29.9904 17.633C30.3632 18.8722 30.3839 20.0265 30.0422 21.033ZM27.1389 25.6158C27.0303 25.7319 26.9194 25.8467 26.8064 25.9597C26.6095 26.1563 26.408 26.3466 26.202 26.5302C26.0721 26.6459 25.8757 26.5012 25.9492 26.3434C25.9701 26.2984 25.9909 26.253 26.0117 26.2073C26.0982 26.0165 26.1817 25.8208 26.263 25.6214C26.2823 25.5743 26.3229 25.5392 26.3721 25.5266C26.5769 25.4746 26.7766 25.4172 26.9711 25.3545C27.1288 25.3038 27.2523 25.4949 27.1389 25.6158ZM25.0069 24.4699C24.5757 24.5324 24.1223 24.5728 23.648 24.5895C22.4906 24.63 21.2669 24.5302 20.0098 24.2987C19.8566 24.2706 19.8272 24.0633 19.9661 23.993C20.2403 23.8542 20.5146 23.7123 20.7889 23.567C22.7123 22.5475 24.507 21.4331 26.0781 20.2905C26.1959 20.2048 26.3582 20.3059 26.3343 20.4497C26.1165 21.7591 25.8148 22.9918 25.4359 24.1108C25.3713 24.3014 25.2061 24.441 25.0069 24.4699ZM24.5623 26.2145C23.531 28.2428 22.2609 29.3815 21.0298 29.3586C19.6917 29.3348 18.3575 27.9414 17.3694 25.5359L17.3683 25.5332C17.3056 25.3806 17.3777 25.2058 17.5289 25.1401C17.5394 25.1354 17.5499 25.1309 17.5604 25.1262C17.6253 25.098 17.6981 25.0929 17.7663 25.1122C19.6145 25.6308 21.4356 25.9015 23.1417 25.9015C23.3272 25.9015 23.5113 25.8984 23.6939 25.892C23.9076 25.8843 24.118 25.8723 24.3246 25.8559C24.5162 25.8407 24.6495 26.0431 24.5623 26.2145ZM18.4553 30.0716C17.8422 30.1504 17.22 30.1907 16.5917 30.1907C13.7838 30.1907 11.0982 29.395 8.79254 27.9102C8.6339 27.8079 8.70126 27.5618 8.88982 27.5531C8.92894 27.5513 8.96542 27.5493 8.99758 27.5474C9.58358 27.5092 10.2261 27.4234 10.9222 27.2893C12.403 27.0044 14.0492 26.5158 15.7728 25.8578C15.9273 25.7988 16.0998 25.8754 16.1627 26.0284C16.1631 26.0294 16.1634 26.0302 16.1638 26.0311C16.8317 27.6574 17.6538 28.8862 18.5769 29.6679C18.7294 29.7973 18.6537 30.0462 18.4553 30.0716ZM10.1017 19.9502C11.3746 18.9136 12.8661 17.8794 14.5021 16.9002C14.5373 18.9928 14.7667 21.0018 15.1728 22.8165C14.566 22.5577 13.961 22.2727 13.3613 21.9613C12.1997 21.3576 11.1069 20.6814 10.1017 19.9502ZM6.14303 25.557C5.83935 24.9841 6.23183 23.657 8.22568 21.6398L8.22667 21.6389C8.43488 21.4286 8.41491 21.0834 8.18248 20.9002C8.1026 20.8375 8.02328 20.7741 7.94453 20.7106C7.74595 20.5501 7.45857 20.5649 7.27826 20.7454C7.23874 20.785 7.20928 20.8147 7.20064 20.8236C6.20394 21.8466 5.50636 22.7937 5.11558 23.6454C5.00482 23.8868 4.67027 23.9129 4.52382 23.6914C2.97698 21.353 2.14613 18.613 2.14613 15.745C2.14613 14.7197 2.25264 13.7106 2.45986 12.7306C2.49116 12.5822 2.70036 12.5727 2.74427 12.7178C3.04398 13.7073 3.53178 14.7307 4.20584 15.7657C5.11318 17.1591 6.30973 18.4986 7.72768 19.7274C8.21165 20.1467 8.72286 20.5524 9.25598 20.9438C10.3366 21.7367 11.511 22.4686 12.7604 23.1178C13.3142 23.4055 13.8536 23.6802 14.4059 23.9289C14.7134 24.0673 15.0634 24.0781 15.3773 23.9548C15.6377 23.8528 15.9001 23.7467 16.164 23.6364C16.4509 23.5167 16.6065 23.2038 16.5305 22.9023C16.521 22.8646 16.5135 22.8343 16.5093 22.8165C16.0743 20.9859 15.8325 18.9252 15.8041 16.7668L15.8032 16.7672C15.8029 16.7416 15.803 16.7155 15.8028 16.6896C15.8015 16.5716 15.8022 16.4528 15.8001 16.3351C15.7993 16.2975 15.8005 16.234 15.8009 16.1963C15.8012 16.1813 15.8009 16.1664 15.8009 16.1515C15.8008 16.1515 15.8011 16.1515 15.8009 16.1515C15.8017 16.0164 15.8032 15.8813 15.8056 15.7458C15.8122 15.3755 15.8256 15.0079 15.8447 14.6434C15.8444 14.6435 15.8443 14.6437 15.844 14.6438C15.9781 12.0392 16.4197 9.59184 17.1224 7.5331C17.1874 7.3426 17.0859 7.1358 16.8953 7.0708C16.7097 7.00734 16.5241 6.94672 16.3389 6.88865C16.1515 6.82987 15.9512 6.931 15.8879 7.11697C15.1263 9.35272 14.6564 12.0052 14.531 14.8121C14.515 15.1682 14.3213 15.4922 14.0146 15.6739C12.3521 16.6591 10.8254 17.7036 9.50654 18.7564C9.23174 18.9758 8.83926 18.9674 8.57354 18.737C7.25163 17.5909 6.13906 16.346 5.29802 15.0544C3.64523 12.5165 3.25247 10.1257 4.19238 8.32344C4.19494 8.3192 4.1972 8.3148 4.19961 8.31072C4.31943 8.11184 4.44407 7.91567 4.57382 7.72219C5.65381 6.29264 7.66394 5.46419 10.3298 5.37056C10.4985 5.36462 10.6684 5.36164 10.8397 5.36164C12.4749 5.36164 14.2299 5.63147 16.0147 6.14646C16.0537 6.1578 16.0933 6.16912 16.1324 6.1806C16.1625 6.18952 16.1927 6.19788 16.2229 6.20694C16.2229 6.2068 16.2227 6.20708 16.2229 6.20694C16.6353 6.33016 17.0489 6.46685 17.463 6.61585C17.4632 6.61571 17.463 6.616 17.463 6.61585C17.4727 6.61925 17.4825 6.6228 17.4921 6.62619C17.6001 6.66514 17.7078 6.70508 17.8156 6.74573C17.8493 6.75848 17.8832 6.77137 17.9169 6.7844C17.9493 6.79687 17.9817 6.80891 18.0143 6.82151C18.8859 7.15889 19.7565 7.5518 20.6165 7.9988C22.2812 8.86368 23.8049 9.87752 25.1309 10.9898C22.6003 11.5695 19.6587 12.6879 16.7012 14.1958C16.5648 14.2654 16.475 14.4026 16.4664 14.5555C16.456 14.7388 16.4424 15.1074 16.4326 15.4002C16.4265 15.5842 16.621 15.7059 16.7839 15.6204L16.7856 15.6194C19.7138 14.0818 22.6363 12.9325 25.146 12.3252C25.6151 12.2117 25.9187 11.7611 25.8529 11.2831C25.8067 10.9491 25.7547 10.6204 25.6972 10.2974C25.6249 9.89184 25.4029 9.52904 25.0751 9.27952C23.8997 8.38408 22.6042 7.56271 21.2175 6.84205C20.2829 6.35652 19.3347 5.93103 18.3844 5.56816C18.1812 5.49053 18.0941 5.25032 18.2001 5.06038C19.1792 3.30902 20.3436 2.32817 21.478 2.32817C21.4897 2.32817 21.5014 2.32817 21.5132 2.32845C22.8513 2.35239 24.1855 3.74569 25.1736 6.15114C25.6737 7.3688 26.0613 8.77304 26.3261 10.299C26.3247 10.2978 26.3233 10.2966 26.322 10.2954C26.435 10.9466 26.5261 11.6197 26.5937 12.3102C26.5878 12.3138 26.5816 12.3171 26.5758 12.3208C26.5837 12.3289 26.5921 12.3369 26.6001 12.3451C26.7122 13.5038 26.7595 14.7102 26.7374 15.9414C26.7235 16.7201 26.6821 17.488 26.6149 18.2394C24.8247 19.6861 22.6113 21.1258 20.1784 22.4152C19.3789 22.839 18.5794 23.2334 17.7878 23.5966C17.7755 23.6022 17.7633 23.6078 17.751 23.6134C17.6905 23.6411 17.6299 23.6691 17.5694 23.6965C17.5689 23.6963 17.5685 23.6962 17.568 23.6961C16.9121 23.9928 16.2624 24.2673 15.6234 24.518C15.6233 24.5178 15.6236 24.5181 15.6234 24.518C15.5873 24.5322 15.5518 24.5463 15.5158 24.5603C15.4709 24.5779 15.426 24.5952 15.3813 24.6125C15.2741 24.6535 15.1673 24.694 15.0607 24.7338C15.0314 24.7447 15.002 24.7562 14.9726 24.767C14.8433 24.815 14.7147 24.8616 14.5865 24.9074C14.5705 24.9131 14.5545 24.9192 14.5386 24.9249C14.5388 24.925 14.5384 24.9247 14.5386 24.9249C13.1694 25.4125 11.8645 25.7806 10.6759 26.0094C7.8036 26.5624 6.4511 26.1382 6.14303 25.557ZM8.20599 3.97968C10.6371 2.2388 13.5421 1.29945 16.5917 1.29945C17.3966 1.29945 18.1912 1.36532 18.9698 1.49378C19.1783 1.5282 19.2483 1.79434 19.082 1.92479C18.3275 2.51627 17.6265 3.39145 17.0061 4.5264C16.8547 4.80331 16.5337 4.93871 16.23 4.85316C14.1746 4.27456 12.1525 4.00234 10.2841 4.06792C9.59486 4.09214 8.94222 4.16196 8.32908 4.275C8.15685 4.30672 8.06365 4.08152 8.20599 3.97968ZM28.0351 14.5077C28.0309 14.3421 28.2433 14.2714 28.3393 14.4062C28.4573 14.5718 28.571 14.7382 28.68 14.9055C28.8247 15.1279 28.9594 15.349 29.0846 15.5687C29.1627 15.7057 29.144 15.8774 29.0377 15.9939C28.8691 16.1791 28.6861 16.3706 28.4873 16.5692C28.4149 16.6416 28.3409 16.7141 28.2656 16.7868C28.1721 16.8771 28.0153 16.8083 28.0204 16.6783C28.0296 16.4413 28.0364 16.2035 28.0406 15.9646C28.0494 15.475 28.0473 14.9891 28.0351 14.5077ZM26.537 5.26802C26.6277 5.35414 26.7176 5.44167 26.8064 5.53048C28.1984 6.9225 29.2706 8.54912 29.9876 10.3206C30.06 10.4991 29.9083 10.6862 29.7186 10.652C29.3037 10.5775 28.8369 10.5442 28.3201 10.5529C27.9619 10.5588 27.6505 10.3078 27.5877 9.95512C27.3068 8.38024 26.9007 6.92548 26.3792 5.65583C26.3494 5.58345 26.3194 5.51192 26.2889 5.4411C26.2227 5.28657 26.415 5.15216 26.537 5.26802ZM32.0005 12.4695C31.3782 9.51248 29.9148 6.79559 27.7279 4.60869C24.7533 1.63414 20.7985 -0.00390625 16.5917 -0.00390625C12.385 -0.00390625 8.43006 1.63414 5.45551 4.60869C4.73202 5.33218 4.08856 6.11388 3.52753 6.94276C3.36068 7.16484 3.21126 7.3994 3.0784 7.64486C1.62108 10.0665 0.842773 12.846 0.842773 15.745C0.842773 19.9518 2.48097 23.9066 5.45551 26.8812C8.43006 29.8558 12.385 31.4941 16.5917 31.4941C20.7985 31.4941 24.7533 29.8558 27.7279 26.8812C29.1318 25.4774 30.2376 23.8551 31.0143 22.0911C31.1092 21.8957 31.1921 21.6955 31.2633 21.4914C31.9704 19.6847 32.3408 17.7434 32.3408 15.745C32.3408 14.645 32.2277 13.5628 32.0092 12.5103C32.0062 12.4967 32.0035 12.4831 32.0005 12.4695ZM120.218 17.2271H117.239C116.959 17.2271 116.784 16.9239 116.925 16.6814L118.419 14.1022C118.559 13.8599 118.909 13.8606 119.049 14.103L120.533 16.6824C120.673 16.9247 120.497 17.2271 120.218 17.2271ZM124.137 19.6783L119.438 11.5262C119.1 10.998 118.369 10.998 118.03 11.5262L113.331 19.6783C113.274 19.7805 113.246 19.8826 113.238 20.0008C113.209 20.4612 113.566 20.8726 114.028 20.8833C114.349 20.8907 114.6 20.7286 114.793 20.3826L115.521 19.1194C115.615 18.9542 115.791 18.8522 115.982 18.8522H121.473C121.664 18.8522 121.84 18.9542 121.935 19.1194L122.661 20.3826C122.845 20.7103 123.092 20.8732 123.39 20.883C123.846 20.8981 124.233 20.5273 124.233 20.071C124.233 19.9491 124.205 19.8272 124.137 19.6783Z" fill="white" fill-opacity="0.7"/>
</g>
</g>
<defs>
<clipPath id="clip0_37_2370">
<rect width="124" height="32" fill="white" transform="translate(0.599609)"/>
</clipPath>
</defs>
</svg>
