<svg width="148" height="32" viewBox="0 0 148 32" fill="none" xmlns="http://www.w3.org/2000/svg">
<g clip-path="url(#clip0_37_2336)">
<mask id="mask0_37_2336" style="mask-type:luminance" maskUnits="userSpaceOnUse" x="0" y="-1" width="148" height="33">
<path d="M147.312 -0.00390625H0.3125V31.9961H147.312V-0.00390625Z" fill="white"/>
</mask>
<g mask="url(#mask0_37_2336)">
<path d="M8.20305 24.2344L4.22461 31.3152H31.0623L27.1512 24.2344H8.20305Z" fill="white" fill-opacity="0.7"/>
<path d="M13.7313 -0.00390625L0.3125 24.2344H8.20192L17.7098 7.14503L13.7313 -0.00390625Z" fill="white" fill-opacity="0.7"/>
<path d="M21.6239 -0.00390625L17.7129 7.07694L27.2207 24.1663H35.1102L21.6239 -0.00390625Z" fill="white" fill-opacity="0.7"/>
<path d="M17.6417 14.0898C20.0018 14.0898 21.8899 16.0643 21.8899 18.5154C21.8899 20.9664 20.0018 22.9409 17.6417 22.9409C15.2816 22.9409 13.3936 20.9664 13.3936 18.5154C13.3936 16.0643 15.3491 14.0898 17.6417 14.0898Z" fill="white" fill-opacity="0.7"/>
<path d="M48.0564 4.83203C51.5628 4.83203 53.788 6.87458 53.9903 10.1427H51.4953C51.3605 8.23627 50.0793 7.14693 48.0564 7.14693C45.7637 7.14693 44.2802 8.37243 44.2802 10.2108C44.2802 11.7086 45.0893 12.6618 46.8426 13.0704L49.877 13.8192C52.844 14.5001 54.3949 16.2023 54.3949 18.9256C54.3949 22.3299 51.8325 24.5086 47.9889 24.5086C44.2802 24.5086 41.7853 22.4661 41.6504 19.198H44.1453C44.2128 21.0363 45.6288 22.1937 47.9889 22.1937C50.4165 22.1937 51.9674 21.0363 51.9674 19.1299C51.9674 17.632 51.1582 16.6788 49.4724 16.2704L46.438 15.5895C43.471 14.9086 41.9202 13.0704 41.9202 10.3469C41.7853 7.01076 44.2802 4.83203 48.0564 4.83203Z" fill="white" fill-opacity="0.7"/>
<path d="M55.7441 24.1682V4.83203H58.1042V13.3427C58.9134 11.9129 60.3969 11.0278 62.2849 11.0278C65.4542 11.0278 66.9377 13.1384 66.9377 16.4065V24.3044H64.5777V16.8831C64.5777 14.2959 63.3638 13.2065 61.6106 13.2065C59.318 13.2065 58.1042 14.9768 58.1042 17.1555V24.1682H55.7441Z" fill="white" fill-opacity="0.7"/>
<path d="M76.9153 18.6507V17.9698L73.7461 18.2422C71.6557 18.4464 70.7791 19.2634 70.7791 20.557C70.7791 21.9188 71.7231 22.5996 73.274 22.5996C75.5667 22.5996 76.9153 21.1018 76.9153 18.6507ZM68.4189 20.6252C68.4189 18.2422 70.1048 16.7443 73.0043 16.5401L76.9153 16.1996V15.8592C76.9153 13.6805 75.7016 12.9315 74.0157 12.9315C71.9929 12.9315 70.9139 13.8847 70.9139 15.3826H68.8236C68.8236 12.7273 70.9139 10.957 74.1506 10.957C77.185 10.957 79.2754 12.6592 79.2754 16.1315V24.2337H77.2525L76.9827 22.123C76.3758 23.6209 74.6901 24.506 72.6671 24.506C69.9699 24.506 68.4189 22.9401 68.4189 20.6252Z" fill="white" fill-opacity="0.7"/>
<path d="M88.3114 13.4767H87.233C85.0074 13.4767 83.5914 14.9066 83.5914 17.3576V24.1661H81.2314V11.3661H83.457L83.5914 13.3405C84.0634 11.9789 85.345 11.0938 87.0306 11.0938C87.4354 11.0938 87.8394 11.1618 88.3114 11.2299V13.4767Z" fill="white" fill-opacity="0.7"/>
<path d="M98.1562 17.7001C98.1562 15.0448 96.673 13.1384 94.2458 13.1384C91.8178 13.1384 90.4018 15.0448 90.4018 17.7001C90.4018 20.3555 91.8178 22.2618 94.2458 22.2618C96.673 22.2618 98.1562 20.4236 98.1562 17.7001ZM87.9746 17.8363C87.9746 13.8874 90.1994 10.9597 93.841 10.9597C95.729 10.9597 97.3474 11.8448 98.1562 13.4108V4.83203H100.517V24.2363H98.4266L98.2242 21.9214C97.4146 23.6916 95.729 24.5768 93.7738 24.5768C90.1322 24.5086 87.9746 21.7172 87.9746 17.8363Z" fill="white" fill-opacity="0.7"/>
<path d="M104.222 16.6082H111.37C111.37 14.4975 110.022 13.0677 107.931 13.0677C105.841 12.9996 104.492 14.2933 104.222 16.6082ZM101.862 17.7656C101.862 13.7486 104.29 10.957 107.864 10.957C111.37 10.957 113.663 13.4762 113.663 17.289V18.2422H104.088C104.29 20.9656 105.638 22.4634 107.998 22.4634C109.819 22.4634 111.033 21.6465 111.438 20.2166H113.663C113.056 23.0082 110.966 24.506 107.931 24.506C104.358 24.506 101.862 21.7826 101.862 17.7656Z" fill="white" fill-opacity="0.7"/>
<path d="M126.002 11.3008V24.1689H123.911L123.642 22.1944C122.967 23.5561 121.282 24.4412 119.461 24.4412C116.562 24.4412 114.943 22.3986 114.943 19.2667V11.3008H117.303V18.5178C117.303 21.3093 118.45 22.3305 120.271 22.3305C122.428 22.3305 123.642 20.9008 123.642 18.1093V11.3008H126.002Z" fill="white" fill-opacity="0.7"/>
<path d="M128.162 24.2337V11.2975H130.253L130.455 12.9996C131.062 11.7741 132.41 10.957 134.164 10.957C136.052 10.957 137.468 11.9783 138.075 13.5443C138.681 11.9102 140.165 10.957 142.053 10.957C144.885 10.957 146.571 12.7954 146.571 15.7911V24.2337H144.278V16.4039C144.278 14.3614 143.2 13.2039 141.513 13.2039C139.693 13.2039 138.547 14.4975 138.547 16.6082V24.2337H136.187V16.3358C136.187 14.2933 135.108 13.2039 133.489 13.2039C131.669 13.2039 130.522 14.4975 130.522 16.5401V24.1656H128.162V24.2337Z" fill="white" fill-opacity="0.7"/>
</g>
</g>
<defs>
<clipPath id="clip0_37_2336">
<rect width="148" height="32" fill="white"/>
</clipPath>
</defs>
</svg>
