<svg width="118" height="32" viewBox="0 0 118 32" fill="none" xmlns="http://www.w3.org/2000/svg">
<g clip-path="url(#clip0_37_2359)">
<mask id="mask0_37_2359" style="mask-type:luminance" maskUnits="userSpaceOnUse" x="0" y="-1" width="118" height="33">
<path d="M117.045 -0.00390625H0.619141V31.9961H117.045V-0.00390625Z" fill="white"/>
</mask>
<g mask="url(#mask0_37_2359)">
<path d="M66.2537 25.2937C65.6722 26.1216 64.9007 26.7369 63.939 27.1397C62.9773 27.5201 61.9038 27.7103 60.7185 27.7103C59.7793 27.7103 58.9183 27.5985 58.1354 27.3746C57.3751 27.1509 56.7042 26.8152 56.1226 26.3677C55.5413 25.8978 55.0828 25.3272 54.7473 24.6559C54.4117 23.9623 54.2441 23.1789 54.2441 22.3063C54.2441 21.3441 54.4342 20.5273 54.8143 19.8561C55.1946 19.1624 55.709 18.6029 56.3575 18.1777C57.0284 17.7526 57.8113 17.4393 58.7057 17.2379C59.6003 17.0142 60.5397 16.9023 61.5237 16.9023H66.0525C66.0525 15.6044 65.7617 14.5975 65.1803 13.8814C64.5987 13.1653 63.5812 12.7961 62.1276 12.7737C61.2777 12.7737 60.5397 12.9192 59.9135 13.2101C59.3097 13.501 58.907 13.9821 58.7057 14.6533H54.7808C54.915 13.7136 55.2169 12.9192 55.6865 12.2703C56.1786 11.6213 56.7601 11.0843 57.4309 10.6591C58.1243 10.234 58.8848 9.93189 59.7122 9.75285C60.562 9.57389 61.4119 9.48438 62.2617 9.48438C63.3576 9.48438 64.3751 9.62981 65.3144 9.92069C66.2537 10.2116 67.07 10.7039 67.7633 11.3976C68.5461 12.2031 69.0716 13.1653 69.3401 14.2842C69.6084 15.4029 69.7425 16.6226 69.7425 17.9428V27.4754H66.4214L66.2537 25.2937ZM66.0525 19.6211H62.3624C61.7137 19.6211 61.0651 19.6771 60.4166 19.7889C59.7681 19.8785 59.2089 20.1134 58.7393 20.4937C58.292 20.8518 58.0684 21.3777 58.0684 22.0713C58.0684 22.9217 58.3704 23.5705 58.9741 24.0181C59.6003 24.4433 60.3607 24.6559 61.2553 24.6559C61.9485 24.6559 62.586 24.5663 63.1673 24.3874C63.7713 24.2083 64.2857 23.9175 64.7105 23.5147C65.1355 23.0896 65.4597 22.5637 65.6834 21.9372C65.9295 21.2881 66.0525 20.5161 66.0525 19.6211Z" fill="white" fill-opacity="0.7"/>
<path d="M76.0308 2.43359C76.7242 2.43359 77.2944 2.64617 77.7418 3.07134C78.2114 3.49651 78.4462 4.0783 78.4462 4.81674C78.4462 5.53279 78.2114 6.10341 77.7418 6.52857C77.2944 6.95372 76.7242 7.16631 76.0308 7.16631C75.2929 7.16631 74.7003 6.95372 74.2529 6.52857C73.8056 6.10341 73.582 5.53279 73.582 4.81674C73.582 4.0783 73.8056 3.49651 74.2529 3.07134C74.7003 2.64617 75.2929 2.43359 76.0308 2.43359ZM74.0852 27.4733V9.78444H77.9096V27.4733H74.0852Z" fill="white" fill-opacity="0.7"/>
<path d="M108.302 9.48438C109.712 9.48438 110.953 9.70813 112.026 10.1557C113.1 10.6032 114.006 11.2297 114.744 12.0353C115.504 12.8185 116.074 13.7695 116.454 14.8883C116.834 16.0072 117.025 17.2492 117.025 18.6141C117.025 20.0014 116.834 21.2546 116.454 22.3735C116.097 23.4699 115.549 24.4209 114.81 25.2265C114.073 26.0321 113.156 26.6475 112.06 27.0726C110.986 27.4977 109.734 27.7103 108.302 27.7103C106.894 27.7103 105.653 27.4977 104.579 27.0726C103.506 26.625 102.6 26.0097 101.862 25.2265C101.146 24.4209 100.598 23.4587 100.218 22.3398C99.86 21.2211 99.6816 19.9791 99.6816 18.6141C99.6816 17.2492 99.86 16.0072 100.218 14.8883C100.598 13.7695 101.158 12.8185 101.895 12.0353C102.634 11.2297 103.539 10.6032 104.613 10.1557C105.686 9.70813 106.916 9.48438 108.302 9.48438ZM108.302 24.3874C109.175 24.3874 109.913 24.2418 110.517 23.951C111.143 23.6377 111.646 23.2237 112.026 22.7091C112.429 22.1944 112.72 21.5902 112.898 20.8966C113.1 20.2029 113.201 19.4532 113.201 18.6477C113.201 17.8421 113.1 17.0925 112.898 16.3988C112.72 15.6827 112.429 15.0674 112.026 14.5527C111.646 14.0381 111.143 13.6353 110.517 13.3444C109.913 13.0535 109.175 12.908 108.302 12.908C107.453 12.908 106.726 13.0535 106.122 13.3444C105.518 13.6353 105.015 14.0381 104.613 14.5527C104.21 15.0674 103.908 15.6827 103.707 16.3988C103.528 17.0925 103.438 17.8421 103.438 18.6477C103.438 19.4532 103.528 20.2029 103.707 20.8966C103.908 21.5902 104.199 22.1944 104.579 22.7091C104.982 23.2237 105.485 23.6377 106.089 23.951C106.715 24.2418 107.453 24.3874 108.302 24.3874Z" fill="white" fill-opacity="0.7"/>
<path d="M88.8736 17.0018H86.1224V4.44531H82.332V27.4742H86.1224V20.3248H89.1088L93.7712 27.4742H98.1992L92.1608 18.2102L97.7296 9.78524H93.436L88.8736 17.0018Z" fill="white" fill-opacity="0.7"/>
<path d="M51.6585 9.735H47.1303V4.44531H45.9602L40.457 11.9264V12.8938H43.2829V21.6488C43.2829 23.7155 43.7482 25.2031 44.6789 26.1116C45.6322 27.0199 47.2098 27.4742 49.4114 27.4742H51.5224V24.1356H49.7518C48.7306 24.1356 48.0382 23.8859 47.675 23.3862C47.3118 22.8865 47.1303 22.1257 47.1303 21.1036V12.8938H51.6585V9.735Z" fill="white" fill-opacity="0.7"/>
<path d="M35.4425 25.8031L29.3472 17.5171C28.6849 16.6167 27.7045 16.0773 26.6603 15.9584C26.4227 15.9308 26.2105 15.7928 26.0915 15.5847C25.9706 15.3765 25.9578 15.124 26.0534 14.903C26.4715 13.939 26.4969 12.8199 26.047 11.7964L21.9234 2.37221C21.3122 0.972807 19.9305 0.0703125 18.4045 0.0703125C16.8786 0.0703125 15.497 0.974927 14.8858 2.37221L10.7621 11.7964C10.3142 12.8199 10.3376 13.939 10.7557 14.903C10.8512 15.124 10.8363 15.3765 10.7175 15.5847C10.5966 15.7928 10.3864 15.9308 10.1487 15.9584C9.10455 16.0773 8.12399 16.6167 7.46186 17.5171L1.36655 25.8031C0.462447 27.0325 0.371186 28.6804 1.1331 30.0033C1.89713 31.3242 3.37002 32.0696 4.88535 31.9019L15.1043 30.7636C16.2142 30.6404 17.1715 30.0608 17.7954 29.2156C17.9377 29.0223 18.1647 28.9076 18.4045 28.9076C18.6443 28.9076 18.8694 29.0223 19.0137 29.2156C19.6376 30.0608 20.5948 30.6404 21.7048 30.7636L31.9238 31.9019C33.4391 32.0717 34.9119 31.3263 35.676 30.0033C36.4378 28.6804 36.3466 27.0325 35.4425 25.8031ZM13.4277 12.9792L17.5577 3.54439C17.7063 3.20675 18.0395 2.98803 18.4066 2.98803C18.7738 2.98803 19.107 3.20675 19.2557 3.54439L23.3857 12.9792C23.5151 13.2764 23.4875 13.6204 23.3092 13.8923C23.131 14.164 22.8296 14.3276 22.5028 14.3276H14.3085C13.9838 14.3276 13.6802 14.164 13.502 13.8923C13.3237 13.6204 13.2961 13.2764 13.4256 12.9792H13.4277ZM15.5478 27.3426C15.4014 27.6336 15.117 27.8289 14.7945 27.865L4.56489 29.0032C4.19985 29.0435 3.8433 28.8652 3.65866 28.5467C3.47401 28.228 3.49736 27.831 3.71596 27.5337L9.81759 19.2393C10.0108 18.9781 10.3206 18.8295 10.6454 18.8485C10.9701 18.8656 11.263 19.046 11.4263 19.3284L11.4327 19.3391L15.5182 26.4189L15.5246 26.4295C15.688 26.712 15.6964 27.056 15.5499 27.3447L15.5478 27.3426ZM19.245 24.1404C19.0709 24.4397 18.7526 24.6267 18.4045 24.6267C18.0586 24.6267 17.7382 24.442 17.5641 24.1424L14.4252 18.7041C14.2512 18.4048 14.2512 18.0331 14.4252 17.7337C14.5992 17.4342 14.9176 17.2474 15.2656 17.2474H21.5414C21.8873 17.2474 22.2077 17.43 22.3818 17.7316C22.5558 18.0331 22.5558 18.4027 22.3818 18.702L19.245 24.1404ZM33.1525 28.5467C32.9679 28.8652 32.6134 29.0457 32.2463 29.0053L22.0168 27.8671C21.6942 27.831 21.4098 27.6356 21.2634 27.3447C21.1169 27.0539 21.1254 26.7097 21.2887 26.4295L21.2952 26.4189L25.3806 19.3391L25.387 19.3284C25.5503 19.046 25.8432 18.8656 26.168 18.8485C26.4927 18.8316 26.8025 18.9781 26.9957 19.2393L33.0974 27.5337C33.3159 27.831 33.3371 28.228 33.1546 28.5467H33.1525Z" fill="white" fill-opacity="0.7"/>
</g>
</g>
<defs>
<clipPath id="clip0_37_2359">
<rect width="117.6" height="32" fill="white"/>
</clipPath>
</defs>
</svg>
