<svg width="56" height="55" viewBox="0 0 56 55" fill="none" xmlns="http://www.w3.org/2000/svg">
<path d="M31.292 35.8103H24V35.5753H24.3058C24.7275 35.5753 25.087 35.4272 25.3843 35.1309C25.6805 34.8337 25.8327 34.4777 25.8407 34.063V20.7473C25.8256 20.3326 25.6695 19.9791 25.3722 19.6869C25.075 19.3936 24.7195 19.247 24.3058 19.247H24V19H31.292L31.2799 19.247H30.9757C30.5609 19.247 30.2034 19.3916 29.9032 19.6808C29.6019 19.9701 29.4473 20.3215 29.4392 20.7353V34.063C29.4473 34.4777 29.5999 34.8337 29.8971 35.1309C30.1934 35.4272 30.5529 35.5753 30.9757 35.5753H31.2799L31.292 35.8103Z" fill="#03ADAE"/>
<path d="M31.9535 13.3494L29.8527 14.8923C29.2007 15.3588 28.44 15.61 27.6794 15.61C26.9187 15.61 26.1581 15.3588 25.5061 14.8923L19.5658 10.5864C18.9138 10.1199 18.1894 9.90465 17.4649 9.90465C16.7405 9.90465 16.0161 10.1199 15.3641 10.5864C15.183 10.7299 15.0019 10.8735 14.8208 11.0529C14.6397 11.2323 14.531 11.4117 14.3861 11.627L14.2775 11.8064L13.9152 5.34759C13.8428 4.23523 14.1326 3.19464 14.7121 2.29758C15.2554 1.4364 16.0885 0.754641 17.1389 0.359934L17.2476 0.32405C18.298 -0.0706567 19.3485 -0.106537 20.3627 0.180522C21.3769 0.467581 22.2824 1.0417 23.0068 1.90287L29.418 9.76112C29.9251 10.407 30.5771 10.8735 31.2653 11.1964L31.9535 13.3494Z" fill="url(#paint0_linear_34_2223)"/>
<path d="M29.7095 14.9729C29.0937 15.4034 28.3693 15.6187 27.6448 15.6187C26.8842 15.6187 26.1235 15.3676 25.4715 14.9011L19.5312 10.5952C18.8792 10.1287 18.1548 9.91345 17.4304 9.91345C16.706 9.91345 15.9815 10.1287 15.3295 10.5952C15.1484 10.7387 14.9673 10.8823 14.7862 11.0617C14.6051 11.2411 14.4964 11.4205 14.3516 11.6358L14.2429 11.8152L13.9531 6.39697C14.4964 5.60755 15.2933 4.96167 16.3075 4.56696L16.4162 4.53109C17.4666 4.13638 18.517 4.10049 19.5312 4.38755C20.5454 4.67461 21.451 5.24873 22.1754 6.10991L28.5866 13.9682C28.9126 14.3629 29.311 14.6858 29.7095 14.9729Z" fill="url(#paint1_linear_34_2223)"/>
<path d="M20.6901 14.4608L20.2917 17.0084C20.183 17.7979 19.7846 18.5155 19.2775 19.0537C18.7341 19.592 18.0459 19.9508 17.2128 20.0584L9.93232 21.1708C9.13545 21.2784 8.48346 21.6373 7.94014 22.1396C7.43304 22.642 7.07082 23.3237 6.92594 24.1132C6.88971 24.3643 6.88972 24.5796 6.88972 24.8308C6.88972 25.082 6.92593 25.2973 6.99838 25.5126L7.0346 25.692L2.18093 21.3861C1.34783 20.6326 0.804508 19.6996 0.587179 18.6949C0.36985 17.6902 0.478518 16.6496 0.913176 15.6449L0.949394 15.5373C1.42027 14.5326 2.1447 13.7431 3.05024 13.2408C3.95578 12.7384 5.04242 12.4873 6.16529 12.5949L16.3073 13.6714C17.1404 13.7431 17.901 13.6355 18.6255 13.3843L20.6901 14.4608Z" fill="url(#paint2_linear_34_2223)"/>
<path d="M20.2562 17.1518C20.1113 17.9054 19.7491 18.5513 19.242 19.0536C18.6986 19.5919 18.0104 19.9507 17.1773 20.0583L9.89682 21.1707C9.09995 21.2783 8.44797 21.6371 7.90464 22.1395C7.39754 22.6419 7.03533 23.3236 6.89045 24.113C6.85423 24.3642 6.85422 24.5795 6.85422 24.8307C6.85422 25.0819 6.89045 25.2972 6.96289 25.5125L6.99911 25.6919L2.90609 22.0677C2.72498 21.0989 2.83364 20.0942 3.2683 19.1254L3.30452 19.0177C3.7754 18.013 4.49983 17.2236 5.40536 16.7213C6.3109 16.2189 7.39755 15.9677 8.52041 16.0754L18.6624 17.1518C19.2057 17.2954 19.7491 17.2595 20.2562 17.1518Z" fill="url(#paint3_linear_34_2223)"/>
<path d="M13.4824 23.1484L15.0399 25.2296C15.5108 25.8755 15.7644 26.629 15.7644 27.3826C15.7644 28.1361 15.5108 28.8896 15.0399 29.5355L10.6934 35.4202C10.2225 36.0661 10.0052 36.7837 10.0052 37.5014C10.0052 38.219 10.2225 38.9367 10.6934 39.5826C10.8383 39.762 10.9831 39.9414 11.1642 40.1208C11.3453 40.3002 11.5265 40.4079 11.7438 40.5514L11.9249 40.659L5.40503 41.0179C4.28216 41.0896 3.23174 40.8026 2.3262 40.2285C1.45689 39.6902 0.768681 38.8649 0.370245 37.8243L0.334022 37.7167C-0.0644147 36.6761 -0.100634 35.6355 0.189138 34.6308C0.47891 33.6261 1.05845 32.729 1.92776 32.0114L9.86027 25.6602C10.5123 25.1579 10.9831 24.512 11.3091 23.8302L13.4824 23.1484Z" fill="url(#paint4_linear_34_2223)"/>
<path d="M15.1118 25.3711C15.5464 25.9811 15.7638 26.6987 15.7638 27.4164C15.7638 28.1699 15.5102 28.9235 15.0393 29.5693L10.6928 35.454C10.2219 36.0999 10.0045 36.8176 10.0045 37.5352C10.0045 38.2529 10.2219 38.9705 10.6928 39.6164C10.8376 39.7958 10.9825 39.9752 11.1636 40.1546C11.3447 40.3341 11.5258 40.4417 11.7432 40.5852L11.9243 40.6929L6.45484 40.9799C5.65797 40.4417 5.00599 39.6523 4.60755 38.6476L4.57133 38.5399C4.17289 37.4993 4.13667 36.4588 4.42644 35.454C4.71621 34.4493 5.29576 33.5523 6.16507 32.8346L14.0976 26.4835C14.496 26.1605 14.822 25.7658 15.1118 25.3711Z" fill="url(#paint5_linear_34_2223)"/>
<path d="M14.6046 34.3047L17.1764 34.6994C17.9732 34.807 18.6977 35.2017 19.241 35.7041C19.7843 36.2423 20.1465 36.9241 20.2552 37.7494L21.378 44.9618C21.4867 45.7512 21.8489 46.397 22.356 46.9353C22.8631 47.4376 23.5513 47.7965 24.3482 47.94C24.6018 47.9759 24.8191 47.9759 25.0726 47.9759C25.3262 47.9759 25.5435 47.94 25.7608 47.8682L25.942 47.8323L21.5954 52.6406C20.8347 53.4659 19.893 54.0041 18.8788 54.2194C17.8646 54.4347 16.8141 54.3271 15.7999 53.8965L15.6913 53.8606C14.6771 53.3941 13.8802 52.6765 13.3731 51.7794C12.866 50.8823 12.6125 49.8059 12.7211 48.6935L13.8078 38.6464C13.8802 37.8212 13.7715 37.0676 13.518 36.35L14.6046 34.3047Z" fill="url(#paint6_linear_34_2223)"/>
<path d="M17.3224 34.7383C18.0831 34.8818 18.7351 35.2406 19.2422 35.743C19.7855 36.2812 20.1477 36.963 20.2564 37.7883L21.3792 45.0006C21.4879 45.7901 21.8501 46.4359 22.3572 46.9742C22.8643 47.4765 23.5525 47.8354 24.3494 47.9789C24.6029 48.0148 24.8203 48.0148 25.0738 48.0148C25.3274 48.0148 25.5447 47.9789 25.762 47.9071L25.9431 47.8712L22.2848 51.9259C21.3068 52.1054 20.2926 51.9977 19.3146 51.5671L19.2059 51.5312C18.1917 51.0648 17.3949 50.3471 16.8878 49.4501C16.3807 48.553 16.1271 47.4765 16.2358 46.3642L17.3224 36.3171C17.4673 35.743 17.4311 35.2406 17.3224 34.7383Z" fill="url(#paint7_linear_34_2223)"/>
<path d="M23.3711 41.4442L25.4719 39.9012C26.1239 39.4348 26.8846 39.1836 27.6452 39.1836C28.4059 39.1836 29.1665 39.4348 29.8185 39.9012L35.7588 44.2071C36.4108 44.6736 37.1353 44.8889 37.8597 44.8889C38.5841 44.8889 39.3085 44.6736 39.9605 44.2071C40.1416 44.0636 40.3227 43.9201 40.5038 43.7407C40.685 43.5613 40.7936 43.3818 40.9385 43.1665L41.0472 42.9871L41.4094 49.446C41.4818 50.5583 41.1921 51.5989 40.6125 52.496C40.0692 53.3571 39.2361 54.0389 38.1857 54.4336L38.077 54.4695C37.0266 54.8642 35.9762 54.9001 34.962 54.613C33.9478 54.326 33.0422 53.7519 32.3178 52.8907L25.9066 45.0324C25.3995 44.3865 24.7475 43.9201 24.0593 43.5971L23.3711 41.4442Z" fill="url(#paint8_linear_34_2223)"/>
<path d="M25.5801 39.8295C26.1958 39.3989 26.9203 39.1836 27.6447 39.1836C28.4053 39.1836 29.166 39.4348 29.818 39.9012L35.7583 44.2071C36.4103 44.6736 37.1347 44.8889 37.8592 44.8889C38.5836 44.8889 39.308 44.6736 39.96 44.2071C40.1411 44.0636 40.3222 43.9201 40.5033 43.7407C40.6844 43.5613 40.7931 43.3818 40.938 43.1665L41.0466 42.9871L41.3364 48.4054C40.7931 49.1948 39.9962 49.8407 38.982 50.2354L38.8734 50.2713C37.8229 50.666 36.7725 50.7018 35.7583 50.4148C34.7441 50.1277 33.8386 49.5536 33.1141 48.6924L26.7029 40.8342C26.4132 40.4395 26.0147 40.1165 25.5801 39.8295Z" fill="url(#paint9_linear_34_2223)"/>
<path d="M34.6367 40.3288L35.0351 37.7812C35.1438 36.9918 35.5423 36.2741 36.0494 35.7359C36.5927 35.1977 37.2809 34.8388 38.114 34.7312L45.3945 33.6188C46.1914 33.5112 46.8433 33.1524 47.3867 32.65C47.8938 32.1477 48.256 31.4659 48.4009 30.6765C48.4371 30.4253 48.4371 30.21 48.4371 29.9588C48.4371 29.7077 48.4009 29.4924 48.3284 29.2771L48.2922 29.0977L53.1459 33.4035C53.979 34.1571 54.5223 35.09 54.7396 36.0947C54.957 37.0994 54.8483 38.14 54.4136 39.1447L54.3774 39.2524C53.9065 40.2571 53.1821 41.0465 52.2766 41.5488C51.371 42.0512 50.2844 42.3024 49.1615 42.1947L39.0195 41.1183C38.1864 41.0465 37.4258 41.1541 36.7013 41.4053L34.6367 40.3288Z" fill="url(#paint10_linear_34_2223)"/>
<path d="M35.0703 37.6377C35.2152 36.8841 35.5774 36.2383 36.0845 35.7359C36.6278 35.1977 37.316 34.8388 38.1491 34.7312L45.4297 33.6188C46.2265 33.5112 46.8785 33.1524 47.4218 32.65C47.9289 32.1477 48.2911 31.4659 48.436 30.6765C48.4723 30.4253 48.4723 30.21 48.4723 29.9588C48.4723 29.7077 48.436 29.4924 48.3636 29.2771L48.3274 29.0977L52.4204 32.7218C52.6015 33.6906 52.4928 34.6953 52.0582 35.6641L52.022 35.7718C51.5511 36.7765 50.8267 37.5659 49.9211 38.0683C49.0156 38.5706 47.9289 38.8218 46.8061 38.7141L36.6641 37.6377C36.0845 37.4941 35.5774 37.53 35.0703 37.6377Z" fill="url(#paint11_linear_34_2223)"/>
<path d="M41.8073 31.6498L40.2498 29.5686C39.7789 28.9227 39.5254 28.1692 39.5254 27.4157C39.5254 26.6621 39.7789 25.9086 40.2498 25.2627L44.5964 19.378C45.0673 18.7321 45.2846 18.0145 45.2846 17.2968C45.2846 16.5792 45.0673 15.8615 44.5964 15.2157C44.4515 15.0363 44.3066 14.8568 44.1255 14.6774C43.9444 14.498 43.7633 14.3904 43.546 14.2468L43.3649 14.1392L49.8847 13.7804C51.0076 13.7086 52.058 13.9957 52.9635 14.5698C53.8329 15.108 54.5211 15.9333 54.9195 16.9739L54.9557 17.0816C55.3542 18.1221 55.3904 19.1627 55.1006 20.1674C54.8109 21.1721 54.2313 22.0692 53.362 22.7869L45.4295 29.138C44.7775 29.6404 44.3066 30.2863 43.9806 30.968L41.8073 31.6498Z" fill="url(#paint12_linear_34_2223)"/>
<path d="M40.2135 29.4252C39.7789 28.8152 39.5615 28.0976 39.5615 27.3799C39.5615 26.6264 39.8151 25.8729 40.286 25.227L44.6325 19.3423C45.1034 18.6964 45.3207 17.9788 45.3207 17.2611C45.3207 16.5435 45.1034 15.8258 44.6325 15.1799C44.4876 15.0005 44.3428 14.8211 44.1617 14.6417C43.9805 14.4623 43.7994 14.3546 43.5821 14.2111L43.401 14.1035L48.8704 13.8164C49.6673 14.3546 50.3193 15.1441 50.7177 16.1488L50.754 16.2564C51.1524 17.297 51.1886 18.3376 50.8989 19.3423C50.6091 20.347 50.0295 21.2441 49.1602 21.9617L41.2639 28.3129C40.8293 28.6358 40.4671 29.0305 40.2135 29.4252Z" fill="url(#paint13_linear_34_2223)"/>
<path d="M40.7221 20.4911L38.1504 20.0964C37.3535 19.9888 36.6291 19.5941 36.0857 19.0917C35.5424 18.5535 35.1802 17.8717 35.0715 17.0464L33.9487 9.83405C33.84 9.04464 33.4778 8.39876 32.9707 7.86052C32.4636 7.32228 31.7754 6.99935 30.9785 6.85582C30.725 6.81993 30.5076 6.81993 30.2541 6.81993C30.0005 6.81993 29.7832 6.85581 29.5659 6.92758L29.3848 6.96346L33.7313 2.15522C34.492 1.32993 35.4338 0.791692 36.448 0.576398C37.4622 0.361103 38.5126 0.468748 39.5268 0.899337L39.6354 0.935222C40.6496 1.40169 41.4465 2.11934 41.9536 3.0164C42.4607 3.91346 42.7143 4.98993 42.6056 6.10228L41.519 16.1494C41.4465 16.9747 41.5552 17.7282 41.8087 18.4458L40.7221 20.4911Z" fill="url(#paint14_linear_34_2223)"/>
<path d="M37.9684 20.0559C37.2077 19.9123 36.5557 19.5535 36.0486 19.0512C35.5053 18.5129 35.1431 17.8311 35.0344 17.0059L33.9116 9.79349C33.8029 9.00408 33.4407 8.35819 32.9336 7.81996C32.4265 7.3176 31.7383 6.95878 30.9414 6.81525C30.6878 6.77937 30.4705 6.77937 30.217 6.77937C29.9634 6.77937 29.7461 6.81525 29.5288 6.88701L29.3477 6.9229L33.006 2.86819C33.984 2.68878 34.9982 2.79643 35.9762 3.22702L36.0849 3.2629C37.0991 3.72937 37.8959 4.44701 38.403 5.34407C38.9101 6.24113 39.1637 7.31761 39.055 8.42996L37.9684 18.477C37.8597 19.0512 37.8959 19.5535 37.9684 20.0559Z" fill="url(#paint15_linear_34_2223)"/>
<defs>
<linearGradient id="paint0_linear_34_2223" x1="17.9712" y1="6.25329" x2="28.0524" y2="14.3796" gradientUnits="userSpaceOnUse">
<stop stop-color="#04BFBF"/>
<stop offset="1" stop-color="#023A40"/>
</linearGradient>
<linearGradient id="paint1_linear_34_2223" x1="13.3419" y1="5.72045" x2="27.7877" y2="14.9479" gradientUnits="userSpaceOnUse">
<stop stop-color="#04BFBF"/>
<stop offset="1" stop-color="#023A40"/>
</linearGradient>
<linearGradient id="paint2_linear_34_2223" x1="5.71435" y1="19.2296" x2="18.6275" y2="17.7694" gradientUnits="userSpaceOnUse">
<stop stop-color="#04BFBF"/>
<stop offset="1" stop-color="#023A40"/>
</linearGradient>
<linearGradient id="paint3_linear_34_2223" x1="2.05396" y1="22.0904" x2="18.8073" y2="18.2872" gradientUnits="userSpaceOnUse">
<stop stop-color="#04BFBF"/>
<stop offset="1" stop-color="#023A40"/>
</linearGradient>
<linearGradient id="paint4_linear_34_2223" x1="6.31036" y1="36.9981" x2="14.3272" y2="26.8636" gradientUnits="userSpaceOnUse">
<stop stop-color="#04BFBF"/>
<stop offset="1" stop-color="#023A40"/>
</linearGradient>
<linearGradient id="paint5_linear_34_2223" x1="5.76271" y1="41.5835" x2="14.8304" y2="27.1185" gradientUnits="userSpaceOnUse">
<stop stop-color="#04BFBF"/>
<stop offset="1" stop-color="#023A40"/>
</linearGradient>
<linearGradient id="paint6_linear_34_2223" x1="19.4101" y1="49.1384" x2="17.9898" y2="36.3404" gradientUnits="userSpaceOnUse">
<stop stop-color="#04BFBF"/>
<stop offset="1" stop-color="#023A40"/>
</linearGradient>
<linearGradient id="paint7_linear_34_2223" x1="22.2993" y1="52.7685" x2="18.595" y2="36.1421" gradientUnits="userSpaceOnUse">
<stop stop-color="#04BFBF"/>
<stop offset="1" stop-color="#023A40"/>
</linearGradient>
<linearGradient id="paint8_linear_34_2223" x1="37.3429" y1="48.5471" x2="27.2617" y2="40.4206" gradientUnits="userSpaceOnUse">
<stop stop-color="#04BFBF"/>
<stop offset="1" stop-color="#023A40"/>
</linearGradient>
<linearGradient id="paint9_linear_34_2223" x1="41.9731" y1="49.0895" x2="27.5276" y2="39.8621" gradientUnits="userSpaceOnUse">
<stop stop-color="#04BFBF"/>
<stop offset="1" stop-color="#023A40"/>
</linearGradient>
<linearGradient id="paint10_linear_34_2223" x1="49.602" y1="35.5663" x2="36.6891" y2="37.0262" gradientUnits="userSpaceOnUse">
<stop stop-color="#04BFBF"/>
<stop offset="1" stop-color="#023A40"/>
</linearGradient>
<linearGradient id="paint11_linear_34_2223" x1="53.2623" y1="32.7058" x2="36.5089" y2="36.5091" gradientUnits="userSpaceOnUse">
<stop stop-color="#04BFBF"/>
<stop offset="1" stop-color="#023A40"/>
</linearGradient>
<linearGradient id="paint12_linear_34_2223" x1="49.0052" y1="17.807" x2="40.9881" y2="27.9417" gradientUnits="userSpaceOnUse">
<stop stop-color="#04BFBF"/>
<stop offset="1" stop-color="#023A40"/>
</linearGradient>
<linearGradient id="paint13_linear_34_2223" x1="49.5525" y1="13.2198" x2="40.4849" y2="27.6847" gradientUnits="userSpaceOnUse">
<stop stop-color="#04BFBF"/>
<stop offset="1" stop-color="#023A40"/>
</linearGradient>
<linearGradient id="paint14_linear_34_2223" x1="35.9059" y1="5.66449" x2="37.3261" y2="18.4624" gradientUnits="userSpaceOnUse">
<stop stop-color="#04BFBF"/>
<stop offset="1" stop-color="#023A40"/>
</linearGradient>
<linearGradient id="paint15_linear_34_2223" x1="33.0175" y1="2.03275" x2="36.7217" y2="18.6588" gradientUnits="userSpaceOnUse">
<stop stop-color="#04BFBF"/>
<stop offset="1" stop-color="#023A40"/>
</linearGradient>
</defs>
</svg>
