<svg width="44" height="45" viewBox="0 0 44 45" fill="none" xmlns="http://www.w3.org/2000/svg">
<g filter="url(#filter0_b_9827_2322)">
<rect y="0.0976562" width="44" height="44" fill="white" fill-opacity="0.11"/>
<rect x="0.5" y="0.597656" width="43" height="43" stroke="white" stroke-opacity="0.1"/>
<path d="M19.1875 24.5977C24.5 24.5977 24.5 19.2852 24.5 19.2852C24.5 19.2852 24.5 24.5977 29.8125 24.5977C24.5 24.5977 24.5 29.9102 24.5 29.9102C24.5 29.9102 24.5 24.5977 19.1875 24.5977ZM17 14.2852C17 14.2852 17 17.0977 14.1875 17.0977C17 17.0977 17 19.9102 17 19.9102C17 19.9102 17 17.0977 19.8125 17.0977C17 17.0977 17 14.2852 17 14.2852Z" fill="#04B6B6"/>
<path d="M19.1875 24.5977C24.5 24.5977 24.5 19.2852 24.5 19.2852C24.5 19.2852 24.5 24.5977 29.8125 24.5977C24.5 24.5977 24.5 29.9102 24.5 29.9102C24.5 29.9102 24.5 24.5977 19.1875 24.5977ZM17 14.2852C17 14.2852 17 17.0977 14.1875 17.0977C17 17.0977 17 19.9102 17 19.9102C17 19.9102 17 17.0977 19.8125 17.0977C17 17.0977 17 14.2852 17 14.2852Z" stroke="#04B6B6" stroke-width="1.875" stroke-linecap="round" stroke-linejoin="round"/>
</g>
<defs>
<filter id="filter0_b_9827_2322" x="-42.8" y="-42.7023" width="129.6" height="129.6" filterUnits="userSpaceOnUse" color-interpolation-filters="sRGB">
<feFlood flood-opacity="0" result="BackgroundImageFix"/>
<feGaussianBlur in="BackgroundImageFix" stdDeviation="21.4"/>
<feComposite in2="SourceAlpha" operator="in" result="effect1_backgroundBlur_9827_2322"/>
<feBlend mode="normal" in="SourceGraphic" in2="effect1_backgroundBlur_9827_2322" result="shape"/>
</filter>
</defs>
</svg>
