<svg width="142" height="141" viewBox="0 0 142 141" fill="none" xmlns="http://www.w3.org/2000/svg">
<path fill-rule="evenodd" clip-rule="evenodd" d="M70.9457 124.441L70.9457 117.072L117.554 92.4521L117.554 98.3414L70.9457 124.441ZM70.9456 124.441L70.9456 117.072L24.313 92.538L24.313 98.3415L70.9456 124.441Z" fill="url(#paint0_linear_9833_2392)"/>
<path fill-rule="evenodd" clip-rule="evenodd" d="M72.0589 66.8857L116.31 90.3528C117.994 91.2456 117.994 93.6581 116.31 94.551L72.0589 118.018C71.3626 118.387 70.5287 118.387 69.8325 118.018L25.5816 94.551C23.8978 93.6581 23.8978 91.2456 25.5816 90.3528L69.8325 66.8857C70.5287 66.5165 71.3627 66.5165 72.0589 66.8857V66.8857Z" fill="url(#paint1_linear_9833_2392)"/>
<g filter="url(#filter0_di_9833_2392)">
<path fill-rule="evenodd" clip-rule="evenodd" d="M70.9456 111.78V111.779L24.313 87.2454L24.313 94.9287L70.9455 120.445V120.446L117.554 94.8435L117.554 87.1602L70.9456 111.78Z" fill="white"/>
</g>
<path fill-rule="evenodd" clip-rule="evenodd" d="M72.0589 61.5937L116.31 85.0608C117.994 85.9537 117.994 88.3661 116.31 89.259L72.0589 112.726C71.3626 113.095 70.5287 113.095 69.8325 112.726L25.5816 89.259C23.8978 88.3661 23.8978 85.9537 25.5816 85.0608L69.8325 61.5937C70.5287 61.2245 71.3627 61.2245 72.0589 61.5937V61.5937Z" fill="url(#paint2_linear_9833_2392)"/>
<path fill-rule="evenodd" clip-rule="evenodd" d="M70.9334 79.3677L70.9334 120.722L19.7783 91.7505L19.7783 52.1936L70.9334 79.3677V79.3677Z" fill="url(#paint3_linear_9833_2392)"/>
<path fill-rule="evenodd" clip-rule="evenodd" d="M70.9331 79.3677L70.9331 120.722L122.062 91.6554L122.062 52.0986L70.9331 79.3677V79.3677Z" fill="url(#paint4_linear_9833_2392)"/>
<g filter="url(#filter1_i_9833_2392)">
<path fill-rule="evenodd" clip-rule="evenodd" d="M72.5045 23.9474L121.018 49.9244C122.876 50.9195 122.876 53.5839 121.018 54.5791L72.5045 80.556C71.726 80.973 70.7906 80.973 70.0121 80.556L21.4991 54.5791C19.6407 53.5839 19.6407 50.9195 21.499 49.9244L70.0121 23.9474C70.7906 23.5305 71.726 23.5305 72.5045 23.9474V23.9474Z" fill="url(#paint5_linear_9833_2392)"/>
</g>
<g filter="url(#filter2_i_9833_2392)">
<path fill-rule="evenodd" clip-rule="evenodd" d="M72.5045 23.9474L121.018 49.9244C122.876 50.9195 122.876 53.5839 121.018 54.5791L72.5045 80.556C71.726 80.973 70.7906 80.973 70.0121 80.556L21.4991 54.5791C19.6407 53.5839 19.6407 50.9195 21.499 49.9244L70.0121 23.9474C70.7906 23.5305 71.726 23.5305 72.5045 23.9474V23.9474Z" fill="black" fill-opacity="0.01"/>
</g>
<path opacity="0.239474" d="M43.5576 94.4211V66.4244L96.0493 35.6167" stroke="black" stroke-width="1.1"/>
<path opacity="0.239474" d="M96.0493 94.4211V66.4244L43.5576 35.6167" stroke="black" stroke-width="1.1"/>
<path opacity="0.239474" d="M21.4177 67.8818L70.9456 98.217L120.268 67.8818" stroke="black" stroke-width="1.1"/>
<g filter="url(#filter3_d_9833_2392)">
<path fill-rule="evenodd" clip-rule="evenodd" d="M43.0103 82.5943C44.3434 82.9522 45.3809 82.4336 45.6262 81.516C45.8715 80.5983 45.2319 79.6293 43.8988 79.2713C42.5657 78.9133 41.5357 79.434 41.2904 80.3516C41.0451 81.2692 41.6772 82.2363 43.0103 82.5943V82.5943Z" fill="#08FFFF"/>
</g>
<g filter="url(#filter4_d_9833_2392)">
<path fill-rule="evenodd" clip-rule="evenodd" d="M96.8912 84.061C97.9459 83.4508 98.2841 82.5026 97.8831 81.8065C97.4821 81.1103 96.4936 80.9299 95.439 81.5401C94.3844 82.1503 94.0521 83.095 94.4531 83.7912C94.8541 84.4873 95.8366 84.6712 96.8912 84.061V84.061Z" fill="#08FFFF"/>
</g>
<g filter="url(#filter5_df_9833_2392)">
<path fill-rule="evenodd" clip-rule="evenodd" d="M69.0166 41.625C72.8865 41.625 76.0236 43.823 76.0236 46.5344C76.0236 49.2458 72.8865 51.4439 69.0166 51.4439C65.1467 51.4439 62.0095 49.2458 62.0095 46.5344C62.0095 43.823 65.1467 41.625 69.0166 41.625V41.625Z" fill="#08FFFF" fill-opacity="0.498039"/>
</g>
<g filter="url(#filter6_di_9833_2392)">
<path fill-rule="evenodd" clip-rule="evenodd" d="M69.0166 41.625C72.8865 41.625 76.0236 43.823 76.0236 46.5344C76.0236 49.2458 72.8865 51.4439 69.0166 51.4439C65.1467 51.4439 62.0095 49.2458 62.0095 46.5344C62.0095 43.823 65.1467 41.625 69.0166 41.625V41.625Z" fill="#00D5D5"/>
</g>
<path opacity="0.239474" fill-rule="evenodd" clip-rule="evenodd" d="M69.0165 39.5347C74.5343 39.5347 79.0074 42.6687 79.0074 46.5347C79.0074 50.4007 74.5343 53.5347 69.0165 53.5347C63.4987 53.5347 59.0256 50.4007 59.0256 46.5347C59.0256 42.6687 63.4987 39.5347 69.0165 39.5347Z" stroke="black" stroke-width="1.1"/>
<g filter="url(#filter7_di_9833_2392)">
<path fill-rule="evenodd" clip-rule="evenodd" d="M76.0236 46.084C76.0236 43.5987 72.5064 41.584 68.9166 41.584C65.3267 41.584 62.0095 43.5987 62.0095 46.084C62.0095 48.5693 64.4938 50.6208 68.9166 50.6208C73.3393 50.6208 76.0236 48.5693 76.0236 46.084V46.084Z" fill="#08FFFF"/>
</g>
<g filter="url(#filter8_i_9833_2392)">
<path fill-rule="evenodd" clip-rule="evenodd" d="M76.0236 46.084C76.0236 43.5987 72.5064 41.584 68.9166 41.584C65.3267 41.584 62.0095 43.5987 62.0095 46.084C62.0095 48.5693 64.4938 50.6208 68.9166 50.6208C73.3393 50.6208 76.0236 48.5693 76.0236 46.084V46.084Z" fill="black" fill-opacity="0.01"/>
</g>
<path fill-rule="evenodd" clip-rule="evenodd" d="M62.0093 47.1333C62.0093 47.1333 63.0659 41.6252 69.0163 41.6252C74.9667 41.6252 76.0234 47.1333 76.0234 47.1333L82.9369 27.4956H54.8958L62.0093 47.1333V47.1333Z" fill="url(#paint6_linear_9833_2392)"/>
<path fill-rule="evenodd" clip-rule="evenodd" d="M62.0095 47.1333C62.0095 47.1333 63.0662 41.6252 69.0166 41.6252C74.967 41.6252 76.0236 47.1333 76.0236 47.1333V27.4956H62.0095V47.1333V47.1333Z" fill="url(#paint7_linear_9833_2392)"/>
<defs>
<filter id="filter0_di_9833_2392" x="16.313" y="81.1602" width="109.241" height="49.2856" filterUnits="userSpaceOnUse" color-interpolation-filters="sRGB">
<feFlood flood-opacity="0" result="BackgroundImageFix"/>
<feColorMatrix in="SourceAlpha" type="matrix" values="0 0 0 0 0 0 0 0 0 0 0 0 0 0 0 0 0 0 127 0" result="hardAlpha"/>
<feOffset dy="2"/>
<feGaussianBlur stdDeviation="4"/>
<feColorMatrix type="matrix" values="0 0 0 0 1 0 0 0 0 1 0 0 0 0 1 0 0 0 0.501961 0"/>
<feBlend mode="normal" in2="BackgroundImageFix" result="effect1_dropShadow_9833_2392"/>
<feBlend mode="normal" in="SourceGraphic" in2="effect1_dropShadow_9833_2392" result="shape"/>
<feColorMatrix in="SourceAlpha" type="matrix" values="0 0 0 0 0 0 0 0 0 0 0 0 0 0 0 0 0 0 127 0" result="hardAlpha"/>
<feOffset dy="2"/>
<feGaussianBlur stdDeviation="4"/>
<feComposite in2="hardAlpha" operator="arithmetic" k2="-1" k3="1"/>
<feColorMatrix type="matrix" values="0 0 0 0 0.0313726 0 0 0 0 1 0 0 0 0 1 0 0 0 0.498039 0"/>
<feBlend mode="normal" in2="shape" result="effect2_innerShadow_9833_2392"/>
</filter>
<filter id="filter1_i_9833_2392" x="20.1053" y="23.6348" width="102.306" height="57.2339" filterUnits="userSpaceOnUse" color-interpolation-filters="sRGB">
<feFlood flood-opacity="0" result="BackgroundImageFix"/>
<feBlend mode="normal" in="SourceGraphic" in2="BackgroundImageFix" result="shape"/>
<feColorMatrix in="SourceAlpha" type="matrix" values="0 0 0 0 0 0 0 0 0 0 0 0 0 0 0 0 0 0 127 0" result="hardAlpha"/>
<feOffset/>
<feGaussianBlur stdDeviation="1"/>
<feComposite in2="hardAlpha" operator="arithmetic" k2="-1" k3="1"/>
<feColorMatrix type="matrix" values="0 0 0 0 1 0 0 0 0 1 0 0 0 0 1 0 0 0 0.0980392 0"/>
<feBlend mode="normal" in2="shape" result="effect1_innerShadow_9833_2392"/>
</filter>
<filter id="filter2_i_9833_2392" x="20.1053" y="23.6348" width="102.306" height="61.2339" filterUnits="userSpaceOnUse" color-interpolation-filters="sRGB">
<feFlood flood-opacity="0" result="BackgroundImageFix"/>
<feBlend mode="normal" in="SourceGraphic" in2="BackgroundImageFix" result="shape"/>
<feColorMatrix in="SourceAlpha" type="matrix" values="0 0 0 0 0 0 0 0 0 0 0 0 0 0 0 0 0 0 127 0" result="hardAlpha"/>
<feOffset dy="4"/>
<feGaussianBlur stdDeviation="4"/>
<feComposite in2="hardAlpha" operator="arithmetic" k2="-1" k3="1"/>
<feColorMatrix type="matrix" values="0 0 0 0 0 0 0 0 0 0 0 0 0 0 0 0 0 0 0.121569 0"/>
<feBlend mode="normal" in2="shape" result="effect1_innerShadow_9833_2392"/>
</filter>
<filter id="filter3_d_9833_2392" x="39.2385" y="77.1572" width="8.43921" height="7.55127" filterUnits="userSpaceOnUse" color-interpolation-filters="sRGB">
<feFlood flood-opacity="0" result="BackgroundImageFix"/>
<feColorMatrix in="SourceAlpha" type="matrix" values="0 0 0 0 0 0 0 0 0 0 0 0 0 0 0 0 0 0 127 0" result="hardAlpha"/>
<feOffset/>
<feGaussianBlur stdDeviation="1"/>
<feColorMatrix type="matrix" values="0 0 0 0 0.0313726 0 0 0 0 1 0 0 0 0 1 0 0 0 1 0"/>
<feBlend mode="normal" in2="BackgroundImageFix" result="effect1_dropShadow_9833_2392"/>
<feBlend mode="normal" in="SourceGraphic" in2="effect1_dropShadow_9833_2392" result="shape"/>
</filter>
<filter id="filter4_d_9833_2392" x="92.2885" y="79.1694" width="7.7583" height="7.26123" filterUnits="userSpaceOnUse" color-interpolation-filters="sRGB">
<feFlood flood-opacity="0" result="BackgroundImageFix"/>
<feColorMatrix in="SourceAlpha" type="matrix" values="0 0 0 0 0 0 0 0 0 0 0 0 0 0 0 0 0 0 127 0" result="hardAlpha"/>
<feOffset/>
<feGaussianBlur stdDeviation="1"/>
<feColorMatrix type="matrix" values="0 0 0 0 0.0313726 0 0 0 0 1 0 0 0 0 1 0 0 0 1 0"/>
<feBlend mode="normal" in2="BackgroundImageFix" result="effect1_dropShadow_9833_2392"/>
<feBlend mode="normal" in="SourceGraphic" in2="effect1_dropShadow_9833_2392" result="shape"/>
</filter>
<filter id="filter5_df_9833_2392" x="58.0095" y="37.625" width="22.0142" height="20.8189" filterUnits="userSpaceOnUse" color-interpolation-filters="sRGB">
<feFlood flood-opacity="0" result="BackgroundImageFix"/>
<feColorMatrix in="SourceAlpha" type="matrix" values="0 0 0 0 0 0 0 0 0 0 0 0 0 0 0 0 0 0 127 0" result="hardAlpha"/>
<feOffset dy="3"/>
<feGaussianBlur stdDeviation="2"/>
<feColorMatrix type="matrix" values="0 0 0 0 0.0313726 0 0 0 0 1 0 0 0 0 1 0 0 0 0.498039 0"/>
<feBlend mode="normal" in2="BackgroundImageFix" result="effect1_dropShadow_9833_2392"/>
<feBlend mode="normal" in="SourceGraphic" in2="effect1_dropShadow_9833_2392" result="shape"/>
<feGaussianBlur stdDeviation="2" result="effect2_foregroundBlur_9833_2392"/>
</filter>
<filter id="filter6_di_9833_2392" x="52.0095" y="33.625" width="34.0142" height="29.8188" filterUnits="userSpaceOnUse" color-interpolation-filters="sRGB">
<feFlood flood-opacity="0" result="BackgroundImageFix"/>
<feColorMatrix in="SourceAlpha" type="matrix" values="0 0 0 0 0 0 0 0 0 0 0 0 0 0 0 0 0 0 127 0" result="hardAlpha"/>
<feOffset dy="2"/>
<feGaussianBlur stdDeviation="5"/>
<feColorMatrix type="matrix" values="0 0 0 0 0.0313726 0 0 0 0 1 0 0 0 0 1 0 0 0 0.498039 0"/>
<feBlend mode="normal" in2="BackgroundImageFix" result="effect1_dropShadow_9833_2392"/>
<feBlend mode="normal" in="SourceGraphic" in2="effect1_dropShadow_9833_2392" result="shape"/>
<feColorMatrix in="SourceAlpha" type="matrix" values="0 0 0 0 0 0 0 0 0 0 0 0 0 0 0 0 0 0 127 0" result="hardAlpha"/>
<feOffset/>
<feGaussianBlur stdDeviation="1"/>
<feComposite in2="hardAlpha" operator="arithmetic" k2="-1" k3="1"/>
<feColorMatrix type="matrix" values="0 0 0 0 0.0313726 0 0 0 0 1 0 0 0 0 1 0 0 0 1 0"/>
<feBlend mode="normal" in2="shape" result="effect2_innerShadow_9833_2392"/>
</filter>
<filter id="filter7_di_9833_2392" x="60.0095" y="39.584" width="18.0142" height="15.0366" filterUnits="userSpaceOnUse" color-interpolation-filters="sRGB">
<feFlood flood-opacity="0" result="BackgroundImageFix"/>
<feColorMatrix in="SourceAlpha" type="matrix" values="0 0 0 0 0 0 0 0 0 0 0 0 0 0 0 0 0 0 127 0" result="hardAlpha"/>
<feOffset dy="2"/>
<feGaussianBlur stdDeviation="1"/>
<feColorMatrix type="matrix" values="0 0 0 0 0 0 0 0 0 0.101961 0 0 0 0 0.113725 0 0 0 0.278431 0"/>
<feBlend mode="normal" in2="BackgroundImageFix" result="effect1_dropShadow_9833_2392"/>
<feBlend mode="normal" in="SourceGraphic" in2="effect1_dropShadow_9833_2392" result="shape"/>
<feColorMatrix in="SourceAlpha" type="matrix" values="0 0 0 0 0 0 0 0 0 0 0 0 0 0 0 0 0 0 127 0" result="hardAlpha"/>
<feOffset dy="-2"/>
<feGaussianBlur stdDeviation="1"/>
<feComposite in2="hardAlpha" operator="arithmetic" k2="-1" k3="1"/>
<feColorMatrix type="matrix" values="0 0 0 0 0 0 0 0 0 0 0 0 0 0 0 0 0 0 0.415686 0"/>
<feBlend mode="normal" in2="shape" result="effect2_innerShadow_9833_2392"/>
</filter>
<filter id="filter8_i_9833_2392" x="62.0095" y="41.584" width="14.0142" height="11.0366" filterUnits="userSpaceOnUse" color-interpolation-filters="sRGB">
<feFlood flood-opacity="0" result="BackgroundImageFix"/>
<feBlend mode="normal" in="SourceGraphic" in2="BackgroundImageFix" result="shape"/>
<feColorMatrix in="SourceAlpha" type="matrix" values="0 0 0 0 0 0 0 0 0 0 0 0 0 0 0 0 0 0 127 0" result="hardAlpha"/>
<feOffset dy="2"/>
<feGaussianBlur stdDeviation="1"/>
<feComposite in2="hardAlpha" operator="arithmetic" k2="-1" k3="1"/>
<feColorMatrix type="matrix" values="0 0 0 0 1 0 0 0 0 1 0 0 0 0 1 0 0 0 0.501961 0"/>
<feBlend mode="normal" in2="shape" result="effect1_innerShadow_9833_2392"/>
</filter>
<linearGradient id="paint0_linear_9833_2392" x1="55.3116" y1="129.407" x2="80.3227" y2="85.4556" gradientUnits="userSpaceOnUse">
<stop stop-color="#00CBCB"/>
<stop offset="1" stop-color="#08FFFF"/>
</linearGradient>
<linearGradient id="paint1_linear_9833_2392" x1="80.5234" y1="60.2072" x2="40.1185" y2="88.7867" gradientUnits="userSpaceOnUse">
<stop stop-color="#00D8D8"/>
<stop offset="1" stop-color="#00A6A6"/>
</linearGradient>
<linearGradient id="paint2_linear_9833_2392" x1="80.5236" y1="54.9154" x2="40.1187" y2="83.4949" gradientUnits="userSpaceOnUse">
<stop stop-color="#00D8D8"/>
<stop offset="1" stop-color="#00A6A6"/>
</linearGradient>
<linearGradient id="paint3_linear_9833_2392" x1="14.962" y1="96.7995" x2="76.1695" y2="92.9132" gradientUnits="userSpaceOnUse">
<stop stop-color="#1E3337"/>
<stop offset="1" stop-color="#2E3842"/>
</linearGradient>
<linearGradient id="paint4_linear_9833_2392" x1="125.22" y1="48.2237" x2="70.0468" y2="45.3982" gradientUnits="userSpaceOnUse">
<stop stop-color="#171A1F"/>
<stop offset="1" stop-color="#1B2126"/>
</linearGradient>
<linearGradient id="paint5_linear_9833_2392" x1="81.7685" y1="16.8683" x2="37.4302" y2="48.2301" gradientUnits="userSpaceOnUse">
<stop stop-color="#363F47"/>
<stop offset="1" stop-color="#2D343B"/>
</linearGradient>
<linearGradient id="paint6_linear_9833_2392" x1="54.8957" y1="27.4956" x2="54.8957" y2="47.1333" gradientUnits="userSpaceOnUse">
<stop stop-color="#08FFFF" stop-opacity="0.01"/>
<stop offset="1" stop-color="#08FFFF" stop-opacity="0.298039"/>
</linearGradient>
<linearGradient id="paint7_linear_9833_2392" x1="62.0095" y1="27.4956" x2="62.0095" y2="47.1333" gradientUnits="userSpaceOnUse">
<stop stop-color="#08FFFF" stop-opacity="0.01"/>
<stop offset="1" stop-color="#08FFFF" stop-opacity="0.298039"/>
</linearGradient>
</defs>
</svg>
