<svg width="610" height="7" viewBox="0 0 610 7" fill="none" xmlns="http://www.w3.org/2000/svg">
<path fill-rule="evenodd" clip-rule="evenodd" d="M610 3.1626V4.40767H0V3.1626H610Z" fill="#00FAFF" fill-opacity="0.568627"/>
<path fill-rule="evenodd" clip-rule="evenodd" d="M24.6055 1.92041C24.7548 1.92041 24.8759 2.05977 24.8759 2.23168V6.58942C24.8759 6.76133 24.7548 6.90069 24.6055 6.90069H0.270401C0.121046 6.90069 0 6.76133 0 6.58942V2.23168C0 2.05977 0.121046 1.92041 0.270401 1.92041H24.6055Z" fill="#09FACD"/>
<path fill-rule="evenodd" clip-rule="evenodd" d="M609.728 0.674316C609.878 0.674316 609.999 0.813675 609.999 0.985584V5.34333C609.999 5.51524 609.878 5.6546 609.728 5.6546H591.883C591.733 5.6546 591.612 5.51524 591.612 5.34333V0.985584C591.612 0.813675 591.733 0.674316 591.883 0.674316H609.728Z" fill="#09FACD"/>
</svg>
